<svg width="531" height="531" viewBox="0 0 531 531" fill="none" xmlns="http://www.w3.org/2000/svg">
<rect width="530.727" height="530.727" fill="#F97D27"/>
<path fill-rule="evenodd" clip-rule="evenodd" d="M247.678 83.2443C247.678 73.9093 255.245 66.3418 264.58 66.3418C273.915 66.3418 281.483 73.9093 281.483 83.2443V123.275H312.619C321.954 123.275 329.521 130.842 329.521 140.177C329.521 149.512 321.954 157.08 312.619 157.08H281.483V286.074C281.483 295.409 273.915 302.977 264.58 302.977C256.153 302.977 249.166 296.809 247.887 288.742H247.678V272.613C247.678 268.747 244.544 265.613 240.678 265.613H229.769C225.903 265.613 222.769 268.747 222.769 272.613V320.885C222.769 320.892 222.769 320.899 222.769 320.906V375.034C222.769 384.369 215.201 391.936 205.866 391.936C196.531 391.936 188.964 384.369 188.964 375.034V317.861L188.964 317.826V272.112C188.964 268.522 186.054 265.612 182.464 265.612H172.334C168.744 265.612 165.834 268.522 165.834 272.112V283.404H165.402V288.374C165.402 297.41 158.078 304.735 149.042 304.735C140.006 304.735 132.682 297.41 132.682 288.374V241.631C132.682 232.595 140.006 225.27 149.042 225.27C157.155 225.27 163.889 231.176 165.179 238.924H165.834V250.217C165.834 253.807 168.744 256.717 172.334 256.717H182.464C186.054 256.717 188.964 253.807 188.964 250.217V218.407C188.994 209.098 196.55 201.561 205.866 201.561C215.19 201.561 222.751 209.111 222.769 218.431V249.717C222.769 253.583 225.903 256.717 229.769 256.717H240.678C244.543 256.717 247.678 253.583 247.678 249.717L247.678 244.261V157.08H212.983C203.648 157.08 196.08 149.512 196.08 140.177C196.08 130.842 203.648 123.275 212.983 123.275H247.678V83.2443ZM245.898 408.839V330.554C245.898 321.219 253.466 313.652 262.801 313.652C272.136 313.652 279.703 321.219 279.703 330.554V333.222L279.703 342.734C279.703 346.324 282.614 349.234 286.203 349.234H296.333C299.923 349.234 302.833 346.324 302.833 342.734V297.021L302.833 296.992V229.138C302.833 219.803 310.401 212.236 319.736 212.236C329.071 212.236 336.638 219.803 336.638 229.138V306.534L336.638 319.105C336.638 322.971 339.772 326.105 343.638 326.105H354.547C358.413 326.105 361.547 322.971 361.547 319.105V306.534H361.726V290.711C361.726 281.676 369.051 274.351 378.086 274.351C387.122 274.351 394.447 281.676 394.447 290.711V367.839C394.447 376.874 387.122 384.199 378.086 384.199C369.051 384.199 361.726 376.874 361.726 367.839V351.014H361.547V345.56C361.547 341.694 358.413 338.56 354.547 338.56H343.638C339.772 338.56 336.638 341.694 336.638 345.56L336.638 351.014V444.423C336.638 453.758 329.071 461.325 319.736 461.325C310.401 461.325 302.833 453.758 302.833 444.423V410.374L302.833 410.345V364.631C302.833 361.041 299.923 358.131 296.333 358.131H286.203C282.614 358.131 279.703 361.041 279.703 364.631L279.703 377.702V408.839C279.703 418.174 272.136 425.742 262.801 425.742C253.466 425.742 245.898 418.174 245.898 408.839Z" fill="white"/>
</svg>
